<svg xmlns="http://www.w3.org/2000/svg" height="32" viewBox="0 0 146 32" fill="none">
				<path class="hide" d="M58.0868 23.6975C56.8608 22.9507 55.8704 21.8733 55.2292 20.589C54.5494 19.2635 54.2096 17.7314 54.2096 15.9929C54.2096 14.3213 54.544 12.8224 55.2129 11.4962C55.8473 10.208 56.8321 9.12501 58.0543 8.37151C59.2797 7.61395 60.6946 7.23517 62.2991 7.23517C63.2009 7.22268 64.0987 7.35818 64.9567 7.63629C65.6684 7.86298 66.3395 8.20129 66.945 8.63856C67.4261 8.98724 67.854 9.40388 68.2154 9.87545V7.73576H71.6926V24.3159H68.2154V21.9373C68.0158 22.2717 67.6647 22.6563 67.1623 23.0909C66.6599 23.5256 65.9972 23.922 65.174 24.2802C64.3487 24.637 63.4016 24.8172 62.3326 24.8208C60.7281 24.8187 59.3128 24.4442 58.0868 23.6975ZM65.826 21.1902C66.6289 20.6979 67.2731 19.9847 67.6813 19.1359C68.1268 18.245 68.3495 17.1977 68.3495 15.9939C68.3495 14.8349 68.1268 13.8096 67.6813 12.9179C67.2703 12.0664 66.6272 11.3483 65.826 10.8464C65.0331 10.3555 64.1137 10.1101 63.0678 10.1101C62.022 10.1101 61.1026 10.3497 60.3097 10.8291C59.5115 11.3172 58.8771 12.0325 58.4879 12.8833C58.0655 13.7757 57.8539 14.8122 57.8532 15.9929C57.8532 17.1959 58.0648 18.2432 58.4879 19.1348C58.8788 19.9896 59.5197 20.7059 60.3259 21.1891C61.1577 21.6782 62.1085 21.9278 63.0732 21.9103C64.1177 21.9103 65.0353 21.6702 65.826 21.1902Z" fill="white"></path>
				<path class="hide" d="M75.5556 7.73546H79.0328V9.50754C79.4908 8.82467 80.0964 8.25343 80.8048 7.83601C81.4961 7.43453 82.3765 7.23415 83.4462 7.23487C84.6045 7.23487 85.574 7.50769 86.3546 8.05334C87.0957 8.55496 87.6944 9.23997 88.0921 10.0417C88.5599 9.28481 89.2342 8.62745 90.115 8.06955C90.9958 7.51165 92.0378 7.23343 93.2408 7.23487C94.4661 7.23487 95.5188 7.46877 96.3989 7.93656C97.2602 8.38564 97.9654 9.08482 98.4219 9.94218C98.8897 10.8115 99.1236 11.8364 99.1236 13.0171V24.3156H95.5805V13.5523C95.5805 12.4163 95.3282 11.5514 94.8236 10.9574C94.3191 10.3635 93.5334 10.068 92.4666 10.0708C91.3299 10.0708 90.4834 10.433 89.9269 11.1574C89.3704 11.8819 89.0919 12.891 89.0911 14.1848V24.3135H85.614V13.5523C85.614 12.7947 85.5026 12.1597 85.2799 11.6472C85.0739 11.1532 84.7096 10.7417 84.2441 10.4774C83.7763 10.2092 83.1637 10.0752 82.4061 10.0752C81.6485 10.0752 81.0301 10.2482 80.5508 10.5942C80.0611 10.954 79.6939 11.4556 79.4988 12.0311C79.2622 12.7247 79.1487 13.4543 79.1636 14.187V24.3156H75.5535L75.5556 7.73546Z" fill="white"></path>
				<path class="hide" d="M102.933 3.72689C102.537 3.30712 102.322 2.74965 102.331 2.17321C102.323 1.88701 102.371 1.60192 102.474 1.33485C102.578 1.06777 102.733 0.82416 102.933 0.618448C103.333 0.206152 103.868 0 104.537 0C105.228 0 105.78 0.211554 106.192 0.634662C106.391 0.831356 106.548 1.06593 106.654 1.32445C106.761 1.58298 106.814 1.86021 106.811 2.13969C106.817 2.43193 106.766 2.72255 106.66 2.99491C106.554 3.26727 106.395 3.51602 106.192 3.72689C105.779 4.15937 105.228 4.37561 104.537 4.37561C103.869 4.37777 103.334 4.16153 102.933 3.72689ZM102.766 7.73597H106.376V24.3161H102.766V7.73597Z" fill="white"></path>
				<path class="hide" d="M110.143 7.73546H113.619V9.94218C114.021 9.274 114.667 8.65556 115.558 8.08685C116.449 7.51814 117.574 7.23414 118.934 7.23486C120.137 7.23486 121.202 7.47416 122.127 7.95277C123.053 8.43353 123.815 9.17822 124.316 10.0925C124.851 11.0396 125.118 12.1929 125.119 13.5523V24.3156H121.541V14.054C121.541 13.096 121.391 12.3327 121.09 11.764C120.82 11.2265 120.387 10.7877 119.853 10.5098C119.33 10.2431 118.689 10.1094 117.931 10.1087C116.973 10.1087 116.18 10.3484 115.552 10.8277C114.915 11.3253 114.439 11.9996 114.182 12.7663C113.894 13.5808 113.75 14.5337 113.75 15.625V24.3156H110.14L110.143 7.73546Z" fill="white"></path>
				<path class="hide" d="M131.807 23.6975C130.581 22.951 129.59 21.8736 128.949 20.589C128.27 19.2635 127.93 17.7314 127.93 15.9929C127.93 14.3213 128.264 12.8224 128.932 11.4962C129.566 10.208 130.551 9.12502 131.773 8.37151C132.999 7.61396 134.414 7.23518 136.018 7.23518C136.92 7.22261 137.818 7.35811 138.676 7.6363C139.388 7.86299 140.059 8.20129 140.665 8.63857C141.146 8.98725 141.574 9.40389 141.936 9.87546V7.73577H145.412V24.3159H141.936V21.9373C141.735 22.2717 141.384 22.6563 140.883 23.0909C140.284 23.586 139.613 23.987 138.893 24.2803C138.069 24.637 137.122 24.8172 136.052 24.8209C134.447 24.8187 133.032 24.4442 131.807 23.6975ZM139.545 21.1902C140.349 20.6985 140.993 19.9851 141.4 19.1359C141.846 18.245 142.069 17.1977 142.069 15.994C142.069 14.8349 141.846 13.8096 141.4 12.9179C140.99 12.066 140.347 11.3477 139.545 10.8464C138.752 10.3555 137.833 10.1101 136.788 10.1101C135.743 10.1101 134.824 10.3497 134.03 10.8291C133.231 11.3166 132.597 12.032 132.208 12.8833C131.784 13.7757 131.573 14.8122 131.573 15.9929C131.573 17.1959 131.785 18.2432 132.208 19.1348C132.599 19.9896 133.24 20.7059 134.046 21.1891C134.877 21.6764 135.825 21.9252 136.788 21.9081C137.835 21.9095 138.754 21.6702 139.545 21.1902Z" fill="white"></path>
				<path d="M15.8594 0.019043C11.6413 0.0537284 7.60772 1.7537 4.63724 4.74871C1.66675 7.74372 0 11.7911 0 16.0094C0 20.2277 1.66675 24.2751 4.63724 27.2701C7.60772 30.2651 11.6413 31.9651 15.8594 31.9998H38.2186V0.019043H15.8594ZM15.8594 29.7606V2.25712C19.5066 2.25712 23.0044 3.70596 25.5834 6.28491C28.1623 8.86387 29.6112 12.3617 29.6112 16.0089C29.6112 19.6561 28.1623 23.1539 25.5834 25.7328C23.0044 28.3118 19.5066 29.7606 15.8594 29.7606Z" fill="white"></path>
			</svg>